<svg id="svg" version="1.1" xmlns="http://www.w3.org/2000/svg" xmlns:xlink="http://www.w3.org/1999/xlink" width="400" height="329.72972972972974" viewBox="0, 0, 400,329.72972972972974"><g id="svgg"><path id="path0" d="M-0.000 2.765 C -0.000 5.246,0.067 5.547,0.656 5.700 C 2.138 6.088,3.621 3.777,3.626 1.072 L 3.627 0.000 1.814 0.000 L 0.000 0.000 -0.000 2.765 M396.230 1.731 C 396.345 2.683,396.647 4.706,396.900 6.226 C 397.253 8.335,397.360 12.791,397.354 25.023 C 397.343 50.201,396.867 53.284,392.698 55.215 C 391.800 55.631,391.227 56.277,390.433 57.765 C 389.149 60.174,387.998 60.795,383.849 61.315 C 380.270 61.764,19.687 61.799,15.429 61.351 C 11.709 60.960,10.493 60.364,9.231 58.313 C 8.535 57.182,7.846 56.521,6.998 56.172 C 5.086 55.384,4.332 54.467,3.614 52.058 C 2.895 49.645,1.804 48.410,0.654 48.710 C 0.002 48.881,-0.002 49.183,0.081 91.795 L 0.165 134.707 1.006 134.805 C 2.101 134.933,2.939 133.995,3.344 132.189 C 3.930 129.584,4.560 128.682,6.403 127.810 C 7.711 127.191,8.366 126.603,9.146 125.349 C 10.015 123.950,10.434 123.612,11.927 123.104 C 14.043 122.385,375.637 121.955,383.112 122.663 C 388.158 123.141,389.188 123.593,390.544 125.925 C 391.385 127.373,391.983 127.964,393.256 128.607 C 396.963 130.478,397.362 133.237,397.362 156.966 C 397.362 180.613,397.014 183.028,393.329 184.989 C 392.384 185.492,391.501 186.299,391.033 187.087 C 389.569 189.552,388.744 190.233,386.480 190.846 C 383.110 191.758,15.055 191.748,12.103 190.835 C 10.434 190.319,10.068 190.047,9.224 188.692 C 8.587 187.668,7.674 186.802,6.545 186.150 C 4.757 185.118,3.326 183.030,3.307 181.426 C 3.294 180.330,1.598 178.719,0.704 178.953 L -0.000 179.137 -0.000 222.094 C -0.000 264.688,0.006 265.052,0.656 265.222 C 1.648 265.482,2.905 264.291,3.296 262.719 C 4.112 259.443,4.897 258.442,7.351 257.553 C 7.857 257.370,8.525 256.751,8.835 256.179 C 9.945 254.128,11.188 252.988,12.791 252.551 C 14.807 252.002,377.632 251.711,383.128 252.254 C 387.672 252.703,389.163 253.376,390.217 255.455 C 391.123 257.241,391.866 258.011,393.458 258.810 C 396.861 260.520,397.197 263.012,397.197 286.562 C 397.197 310.351,396.852 312.938,393.458 314.644 C 391.967 315.393,391.132 316.199,390.437 317.560 C 389.575 319.247,388.841 319.779,386.466 320.435 C 383.140 321.352,15.076 321.350,12.106 320.432 C 10.397 319.904,10.080 319.657,9.064 318.070 C 8.239 316.780,7.616 316.193,6.779 315.917 C 5.118 315.369,4.122 313.984,3.467 311.313 C 2.848 308.788,1.859 307.588,0.656 307.902 C 0.018 308.069,0.000 308.373,0.000 318.917 L 0.000 329.761 200.000 329.761 L 400.000 329.761 400.000 164.880 L 400.000 0.000 398.010 0.000 L 396.020 0.000 396.230 1.731 " stroke="none" fill="#e4ebec" fill-rule="evenodd"></path><path id="path1" d="M3.626 1.072 C 3.621 3.777,2.138 6.088,0.656 5.700 C 0.006 5.531,0.000 5.735,0.000 27.205 C 0.000 48.676,0.006 48.880,0.656 48.710 C 1.804 48.410,2.896 49.646,3.614 52.058 C 4.332 54.467,5.086 55.384,6.998 56.172 C 7.846 56.521,8.535 57.182,9.231 58.313 C 10.493 60.364,11.709 60.960,15.429 61.351 C 19.687 61.799,380.270 61.764,383.849 61.315 C 387.998 60.795,389.149 60.174,390.433 57.765 C 391.227 56.277,391.800 55.631,392.698 55.215 C 396.867 53.284,397.343 50.199,397.354 25.037 C 397.360 12.644,397.254 8.354,396.887 6.076 C 396.625 4.457,396.320 2.428,396.207 1.566 C 396.008 0.041,395.973 0.000,394.869 0.000 C 393.438 -0.000,393.316 1.387,394.477 4.463 C 395.210 6.409,395.220 6.641,395.320 25.721 C 395.447 50.031,395.805 48.025,390.160 54.680 C 386.576 58.906,385.487 59.538,380.933 60.041 C 375.221 60.673,17.322 60.264,15.010 59.624 C 13.342 59.163,12.755 58.778,11.217 57.142 C 10.217 56.078,8.692 54.723,7.830 54.132 C 3.852 51.406,3.467 49.028,3.465 27.205 L 3.462 9.398 4.369 6.005 C 5.561 1.547,5.582 0.000,4.452 0.000 C 3.742 0.000,3.627 0.149,3.626 1.072 M15.334 122.671 C 11.443 122.973,10.192 123.528,9.064 125.451 C 8.385 126.611,7.758 127.168,6.429 127.797 C 4.558 128.682,3.932 129.574,3.344 132.189 C 2.922 134.069,2.087 134.963,0.914 134.791 L -0.000 134.657 -0.000 156.897 L -0.000 179.137 0.704 178.953 C 1.598 178.719,3.294 180.330,3.307 181.426 C 3.326 183.030,4.757 185.118,6.545 186.150 C 7.674 186.802,8.587 187.668,9.224 188.692 C 10.068 190.047,10.434 190.319,12.103 190.835 C 15.055 191.748,383.110 191.758,386.480 190.846 C 388.744 190.233,389.569 189.552,391.033 187.087 C 391.501 186.299,392.384 185.492,393.329 184.989 C 397.014 183.028,397.362 180.613,397.362 156.966 C 397.362 133.237,396.963 130.478,393.256 128.607 C 391.983 127.964,391.385 127.373,390.544 125.925 C 389.212 123.635,388.197 123.168,383.509 122.687 C 379.685 122.294,20.388 122.279,15.334 122.671 M384.633 124.462 C 386.733 125.150,387.349 125.674,391.486 130.296 C 395.461 134.736,395.218 132.994,395.218 157.131 C 395.218 181.643,395.668 179.131,390.272 184.749 C 387.199 187.948,386.342 188.646,384.666 189.316 L 382.688 190.107 201.649 190.203 C -4.908 190.312,13.245 190.621,10.702 186.953 C 10.172 186.188,8.920 184.961,7.920 184.226 C 5.563 182.495,5.495 182.393,4.396 178.895 L 3.462 175.927 3.462 156.966 L 3.462 138.005 4.445 134.872 C 5.293 132.166,5.623 131.560,6.868 130.420 C 7.660 129.695,9.158 128.266,10.195 127.245 C 12.586 124.891,13.501 124.429,16.518 124.050 C 22.112 123.348,382.462 123.751,384.633 124.462 M15.664 252.275 C 11.340 252.674,10.459 253.177,8.835 256.179 C 8.525 256.751,7.857 257.370,7.351 257.553 C 4.897 258.442,4.112 259.443,3.296 262.719 C 2.905 264.291,1.648 265.482,0.656 265.222 C 0.006 265.052,0.000 265.256,-0.000 286.562 C -0.000 307.868,0.006 308.072,0.656 307.902 C 1.859 307.588,2.848 308.788,3.467 311.313 C 4.122 313.984,5.118 315.369,6.779 315.917 C 7.616 316.193,8.239 316.780,9.064 318.070 C 10.080 319.657,10.397 319.904,12.106 320.432 C 15.076 321.350,383.140 321.352,386.466 320.435 C 388.841 319.779,389.575 319.247,390.437 317.560 C 391.132 316.199,391.967 315.393,393.458 314.644 C 396.852 312.938,397.197 310.351,397.197 286.562 C 397.197 263.012,396.861 260.520,393.458 258.810 C 391.866 258.011,391.123 257.241,390.217 255.455 C 389.188 253.426,387.687 252.719,383.467 252.274 C 379.836 251.892,19.813 251.893,15.664 252.275 M381.203 253.598 C 386.547 254.291,393.427 260.611,394.912 266.191 C 395.589 268.733,395.591 304.383,394.915 306.923 C 393.790 311.150,388.426 317.427,384.666 318.919 L 382.688 319.703 199.670 319.703 C 46.916 319.703,16.331 319.629,14.704 319.257 C 12.968 318.859,12.516 318.566,10.582 316.581 C 9.387 315.356,7.924 314.024,7.332 313.622 C 5.960 312.690,5.430 311.643,4.343 307.714 L 3.464 304.534 3.463 286.562 C 3.462 265.027,3.923 261.971,7.492 259.829 C 8.178 259.418,9.784 258.081,11.063 256.859 C 13.474 254.553,14.371 254.128,17.972 253.587 C 20.509 253.205,378.260 253.216,381.203 253.598 " stroke="none" fill="#d4d4d4" fill-rule="evenodd"></path><path id="path2" d="M5.276 1.306 C 5.276 2.024,4.868 4.139,4.369 6.005 L 3.462 9.398 3.465 27.205 C 3.467 49.028,3.852 51.406,7.830 54.132 C 8.692 54.723,10.217 56.078,11.217 57.142 C 12.755 58.778,13.342 59.163,15.010 59.624 C 17.322 60.264,375.221 60.673,380.933 60.041 C 385.487 59.538,386.576 58.906,390.160 54.680 C 395.805 48.025,395.447 50.031,395.320 25.721 C 395.220 6.641,395.210 6.409,394.477 4.463 C 394.068 3.381,393.735 1.934,393.735 1.248 L 393.735 0.000 392.251 0.000 L 390.767 0.000 390.767 1.237 C 390.767 2.032,391.267 3.473,392.168 5.276 L 393.570 8.079 393.570 26.876 L 393.570 45.672 392.780 47.156 C 390.042 52.304,386.578 56.305,383.580 57.781 L 381.382 58.862 199.842 58.862 C 25.053 58.862,18.229 58.840,16.353 58.261 C 14.810 57.784,13.951 57.224,12.231 55.569 C 11.036 54.420,9.450 52.910,8.707 52.214 C 5.565 49.271,5.167 45.973,5.350 24.415 L 5.485 8.409 6.366 5.771 C 7.625 1.999,7.590 0.000,6.265 0.000 C 5.333 0.000,5.276 0.075,5.276 1.306 M16.518 124.050 C 13.501 124.429,12.586 124.891,10.195 127.245 C 9.158 128.266,7.660 129.695,6.868 130.420 C 5.623 131.560,5.293 132.166,4.445 134.872 L 3.462 138.005 3.462 156.966 L 3.462 175.927 4.396 178.895 C 5.495 182.393,5.563 182.495,7.920 184.226 C 8.920 184.961,10.172 186.188,10.702 186.953 C 13.245 190.621,-4.908 190.312,201.649 190.203 L 382.688 190.107 384.666 189.316 C 386.342 188.646,387.199 187.948,390.272 184.749 C 395.668 179.131,395.218 181.643,395.218 157.131 C 395.218 132.994,395.461 134.736,391.486 130.296 C 387.349 125.674,386.733 125.150,384.633 124.462 C 382.462 123.751,22.112 123.348,16.518 124.050 M383.122 125.714 C 385.981 126.860,389.708 130.790,392.275 135.367 L 393.570 137.675 393.570 156.966 L 393.570 176.257 392.274 178.566 C 390.447 181.821,385.813 186.753,383.512 187.891 L 381.698 188.788 199.835 188.788 C -3.329 188.788,14.750 189.002,12.861 186.580 C 11.969 185.437,10.386 183.855,8.306 182.028 C 7.255 181.105,6.837 180.379,6.216 178.401 L 5.441 175.927 5.441 156.966 C 5.441 133.412,5.155 134.992,10.355 129.786 C 13.882 126.255,14.480 125.899,17.807 125.352 C 21.692 124.714,381.515 125.071,383.122 125.714 M17.972 253.587 C 14.371 254.128,13.474 254.553,11.063 256.859 C 9.784 258.081,8.178 259.418,7.492 259.829 C 3.923 261.971,3.462 265.027,3.463 286.562 L 3.464 304.534 4.343 307.714 C 5.430 311.643,5.960 312.690,7.332 313.622 C 7.924 314.024,9.387 315.356,10.582 316.581 C 12.516 318.566,12.968 318.859,14.704 319.257 C 16.331 319.629,46.916 319.703,199.670 319.703 L 382.688 319.703 384.666 318.919 C 388.426 317.427,393.790 311.150,394.915 306.923 C 395.591 304.383,395.589 268.733,394.912 266.191 C 393.427 260.611,386.547 254.291,381.203 253.598 C 378.260 253.216,20.509 253.205,17.972 253.587 M383.421 255.849 C 387.741 257.802,393.016 265.122,393.434 269.744 C 393.772 273.477,393.765 300.198,393.426 303.545 C 392.946 308.276,387.677 315.681,383.421 317.605 L 381.698 318.384 200.000 318.384 C 43.902 318.384,18.000 318.318,16.158 317.914 C 14.179 317.480,13.836 317.265,11.683 315.111 C 10.400 313.828,8.906 312.407,8.362 311.954 C 7.628 311.342,7.124 310.365,6.407 308.162 L 5.441 305.194 5.441 286.562 L 5.441 267.931 6.359 265.293 C 7.399 262.302,7.628 261.949,9.233 260.854 C 9.868 260.421,11.290 259.213,12.394 258.171 C 13.987 256.665,14.802 256.163,16.351 255.731 C 17.424 255.432,18.450 255.135,18.631 255.072 C 18.813 255.008,100.577 254.982,200.330 255.013 L 381.698 255.070 383.421 255.849 " stroke="none" fill="#c4c4c4" fill-rule="evenodd"></path><path id="path3" d="M7.251 1.566 C 7.248 2.428,6.850 4.320,6.366 5.771 L 5.485 8.409 5.350 24.415 C 5.167 45.973,5.565 49.271,8.707 52.214 C 9.450 52.910,11.036 54.420,12.231 55.569 C 13.951 57.224,14.810 57.784,16.353 58.261 C 18.229 58.840,25.053 58.862,199.842 58.862 L 381.382 58.862 383.580 57.781 C 386.578 56.305,390.042 52.304,392.780 47.156 L 393.570 45.672 393.570 26.876 L 393.570 8.079 392.168 5.276 C 391.267 3.473,390.767 2.032,390.767 1.237 L 390.767 0.000 199.011 0.000 L 7.255 0.000 7.251 1.566 M17.807 125.352 C 14.480 125.899,13.882 126.255,10.355 129.786 C 5.155 134.992,5.441 133.412,5.441 156.966 L 5.441 175.927 6.216 178.401 C 6.837 180.379,7.255 181.105,8.306 182.028 C 10.386 183.855,11.969 185.437,12.861 186.580 C 14.750 189.002,-3.329 188.788,199.835 188.788 L 381.698 188.788 383.512 187.891 C 385.813 186.753,390.447 181.821,392.274 178.566 L 393.570 176.257 393.570 156.966 L 393.570 137.675 392.275 135.367 C 389.708 130.790,385.981 126.860,383.122 125.714 C 381.515 125.071,21.692 124.714,17.807 125.352 M18.631 255.072 C 18.450 255.135,17.424 255.432,16.351 255.731 C 14.802 256.163,13.987 256.665,12.394 258.171 C 11.290 259.213,9.868 260.421,9.233 260.854 C 7.628 261.949,7.399 262.302,6.359 265.293 L 5.441 267.931 5.441 286.562 L 5.441 305.194 6.407 308.162 C 7.124 310.365,7.628 311.342,8.362 311.954 C 8.906 312.407,10.400 313.828,11.683 315.111 C 13.836 317.265,14.179 317.480,16.158 317.914 C 18.000 318.318,43.902 318.384,200.000 318.384 L 381.698 318.384 383.421 317.605 C 387.677 315.681,392.946 308.276,393.426 303.545 C 393.765 300.198,393.772 273.477,393.434 269.744 C 393.016 265.122,387.741 257.802,383.421 255.849 L 381.698 255.070 200.330 255.013 C 100.577 254.982,18.813 255.008,18.631 255.072 " stroke="none" fill="#acacac" fill-rule="evenodd"></path></g></svg>